# xmcd
#
# Track frame offsets:
#	150
#	15133
#	29587
#	45457
#	58840
#	74973
#	94595
#	112087
#	129452
#	140021
#	156023
#	175561
#	185908
#	208076
#	225505
#	244166
#	258582
#	275250
#	298044
#
# Disc length: 4198 seconds
#
# Revision: 1
# Processed by: cddbd v1.5.2PL0 Copyright (c) Steve Scherf et al.
# Submitted via: audiograbber 1.83.01
#
DISCID=1d106413
DTITLE=Terri Hendrix - The Spiritual Kind on the Road
DYEAR=1900
DGENRE=
TTITLE0=Two Dollar Shoes
TTITLE1=Where the Crossroads End
TTITLE2=Joy or Sorrow
TTITLE3=Long Ride Home
TTITLE4=Pastures of Plenty
TTITLE5=Spiritual Kind
TTITLE6=One Way
TTITLE7=Spinning Off
TTITLE8=New Orleans
TTITLE9=Born to be Wild
TTITLE10=Hole in My Pocket
TTITLE11=Late night conversation about the kid's CD "Celebrate the Difference"
TTITLE12=Monopoly
TTITLE13=Things Change
TTITLE14=Acre of Land
TTITLE15=Throws Like a Girl
TTITLE16=The Ring
TTITLE17=Take Me Places
TTITLE18=The Last Song
EXTD=
EXTT0=
EXTT1=
EXTT2=
EXTT3=
EXTT4=
EXTT5=
EXTT6=
EXTT7=
EXTT8=
EXTT9=
EXTT10=
EXTT11=
EXTT12=
EXTT13=
EXTT14=
EXTT15=
EXTT16=
EXTT17=
EXTT18=
PLAYORDER=
